<svg xmlns="http://www.w3.org/2000/svg" width="142.526" height="153.896" viewBox="0 0 142.526 153.896">
  <g id="Grupo_979" data-name="Grupo 979" transform="translate(-315.88 -1118.951)">
    <g id="XMLID_947_" transform="translate(387.147 1272.852) rotate(-135)" opacity="0.1">
      <g id="XMLID_2178_" transform="translate(0.007 0)">
        <path id="XMLID_2181_" d="M95.668,18.044A36.322,36.322,0,0,0,76.585,1.755C68.628-1.065,60.525-.471,53.771,3.429s-11.32,10.619-12.857,18.92a34.951,34.951,0,0,0,.94,16.247,31.142,31.142,0,0,0-14.076.5A37.329,37.329,0,0,0,10.9,48.912,36.321,36.321,0,0,0,.107,71.561c-.664,8.416,2.007,16.088,7.522,21.6a26.271,26.271,0,0,0,17.437,7.573q.83.046,1.666.046a34.832,34.832,0,0,0,17.811-5.13,1.968,1.968,0,0,0-2.037-3.369c-10.8,6.531-23.619,5.945-31.5-1.338A20.427,20.427,0,0,1,31.392,71.37a24.128,24.128,0,0,0,14.662-4.91,24.588,24.588,0,0,0,7.578-9.544,35.459,35.459,0,0,0,4.838,3.507,29.761,29.761,0,0,1-4.2,20.093,1.968,1.968,0,1,0,3.369,2.036A34.38,34.38,0,0,0,62.69,62.578c.617.262,1.242.508,1.874.732a29.6,29.6,0,0,0,9.891,1.754,25.667,25.667,0,0,0,12.922-3.429c6.755-3.9,11.32-10.619,12.857-18.92a36.32,36.32,0,0,0-4.566-24.672ZM31.392,67.433a24.381,24.381,0,0,0-23.836,19.4C1.106,76.8,3.413,61.969,13.686,51.7c8.391-8.391,19.994-11.719,29.8-8.622A39.519,39.519,0,0,0,45.48,47.02a38.944,38.944,0,0,0,5.1,6.944A20.542,20.542,0,0,1,31.392,67.433ZM65.878,59.6A32.387,32.387,0,0,1,48.889,45.052c-8.017-13.885-5.224-30.626,6.146-37.788A20.427,20.427,0,0,1,68.673,32.023a24.356,24.356,0,0,0,12.57,28.049A23.871,23.871,0,0,1,65.878,59.6Zm20.234-1.8A20.4,20.4,0,0,1,72.475,33.042,24.381,24.381,0,0,0,59.9,5C71.261,1.362,84.995,7.43,92.259,20.013,100.276,33.9,97.483,50.639,86.112,57.8Z" transform="translate(-0.007 0)" fill="#9e5a38"/>
        <path id="XMLID_2184_" d="M248.465,439.637a1.969,1.969,0,1,0,1.392.577A1.983,1.983,0,0,0,248.465,439.637Z" transform="translate(-197.982 -353.107)" fill="#9e5a38"/>
      </g>
    </g>
    <g id="XMLID_947_2" data-name="XMLID_947_" transform="translate(411.679 1118.944) rotate(90)" opacity="0.1">
      <g id="XMLID_2178_2" data-name="XMLID_2178_" transform="translate(0.007 0)">
        <path id="XMLID_2181_2" data-name="XMLID_2181_" d="M54.748,10.326A20.785,20.785,0,0,0,43.828,1a15.422,15.422,0,0,0-13.055.958,15.422,15.422,0,0,0-7.357,10.827,20,20,0,0,0,.538,9.3,17.821,17.821,0,0,0-8.055.287,21.361,21.361,0,0,0-9.657,5.617A20.784,20.784,0,0,0,.064,40.95a15.421,15.421,0,0,0,4.3,12.362,15.034,15.034,0,0,0,9.978,4.333q.475.027.953.026a19.932,19.932,0,0,0,10.192-2.935,1.126,1.126,0,1,0-1.165-1.928c-6.182,3.737-13.516,3.4-18.025-.766a11.689,11.689,0,0,1,11.665-11.2,13.807,13.807,0,0,0,8.39-2.81,14.07,14.07,0,0,0,4.336-5.461,20.291,20.291,0,0,0,2.769,2.007,17.03,17.03,0,0,1-2.4,11.5,1.126,1.126,0,1,0,1.928,1.165A19.674,19.674,0,0,0,35.877,35.81c.353.15.711.291,1.072.419a16.939,16.939,0,0,0,5.66,1A14.688,14.688,0,0,0,50,35.271a15.421,15.421,0,0,0,7.357-10.827,20.784,20.784,0,0,0-2.613-14.118ZM17.967,38.588a13.952,13.952,0,0,0-13.64,11.1c-3.691-5.74-2.371-14.23,3.508-20.109,4.8-4.8,11.441-6.706,17.054-4.934a22.614,22.614,0,0,0,1.14,2.259,22.285,22.285,0,0,0,2.919,3.974A11.755,11.755,0,0,1,17.967,38.588ZM37.7,34.105a18.533,18.533,0,0,1-9.722-8.325C23.392,17.835,24.99,8.255,31.5,4.157a11.689,11.689,0,0,1,7.8,14.168,13.937,13.937,0,0,0,7.193,16.051A13.66,13.66,0,0,1,37.7,34.105Zm11.579-1.03a11.674,11.674,0,0,1-7.8-14.168A13.952,13.952,0,0,0,34.282,2.859C40.782.78,48.64,4.252,52.8,11.452c4.587,7.946,2.989,17.526-3.518,21.624Z" transform="translate(-0.007 0)" fill="#9e5a38"/>
        <path id="XMLID_2184_2" data-name="XMLID_2184_" d="M247.623,439.637a1.127,1.127,0,1,0,.8.33A1.135,1.135,0,0,0,247.623,439.637Z" transform="translate(-218.735 -390.121)" fill="#9e5a38"/>
      </g>
    </g>
  </g>
</svg>
